# xmcd
# 
# Track frame offsets:
#     150
#     21077
#     48660
#     65682
#     78935
#     96085
#     119172
#     145392
#     166597
# 
# Disc length: 2392
# 
# Revision: 3
# Processed by: cddbd v1.5.2PL0 Copyright (c) Steve Scherf et al.
# Submitted via: BonkEnc v1.0.8
# 
DISCID=79095609
DTITLE=宗次郎 - 心
DYEAR=200
DGENRE=
TTITLE0=こころ
TTITLE1=四季〜愛しき子供達へ
TTITLE2=清流
TTITLE3=思い出の小箱
TTITLE4=若葉の頃
TTITLE5=雲を友として
TTITLE6=地平線
TTITLE7=光の中で
TTITLE8=大地の神
EXTD=
EXTT0=
EXTT1=
EXTT2=
EXTT3=
EXTT4=
EXTT5=
EXTT6=
EXTT7=
EXTT8=
PLAYORDER=
